<?xml version="1.0" standalone="no"?>
<!DOCTYPE svg PUBLIC "-//W3C//DTD SVG 20010904//EN"
 "http://www.w3.org/TR/2001/REC-SVG-20010904/DTD/svg10.dtd">
<svg version="1.0" xmlns="http://www.w3.org/2000/svg"
 width="360.000000pt" height="281.000000pt" viewBox="0 0 360.000000 281.000000"
 preserveAspectRatio="xMidYMid meet">

<g transform="translate(0.000000,281.000000) scale(0.100000,-0.100000)"
fill="#381C5D" stroke="none">
<path d="M2006 2358 c-7 -13 -55 -165 -105 -338 -50 -173 -181 -628 -291
-1010 -110 -381 -199 -701 -198 -710 6 -32 144 -74 176 -52 12 8 602 2030 602
2063 0 23 -19 37 -76 54 -68 20 -91 19 -108 -7z"/>
<path d="M752 1707 c-223 -223 -382 -390 -382 -400 0 -28 754 -777 781 -777
28 0 129 100 129 128 0 14 -104 124 -314 335 l-313 315 313 314 c221 221 314
320 314 336 0 26 -102 132 -128 132 -9 0 -189 -172 -400 -383z"/>
<path d="M2377 2032 c-31 -32 -57 -65 -57 -74 0 -8 143 -158 317 -332 l317
-317 -319 -319 c-282 -282 -317 -321 -312 -342 9 -34 101 -118 129 -118 31 0
778 745 778 777 0 27 -750 783 -777 783 -10 0 -44 -26 -76 -58z"/>
</g>
</svg>
