<?xml version="1.0" standalone="no"?>
<!DOCTYPE svg PUBLIC "-//W3C//DTD SVG 20010904//EN"
 "http://www.w3.org/TR/2001/REC-SVG-20010904/DTD/svg10.dtd">
<svg version="1.0" xmlns="http://www.w3.org/2000/svg"
 width="512.000000pt" height="512.000000pt" viewBox="0 0 512.000000 512.000000"
 preserveAspectRatio="xMidYMid meet">

<g transform="translate(0.000000,512.000000) scale(0.100000,-0.100000)"
fill="#1A374D" stroke="none">
<path d="M2235 4550 c-751 -55 -1305 -276 -1448 -577 l-32 -68 0 -1341 0
-1340 37 -75 c149 -301 681 -512 1438 -570 195 -15 655 -6 840 15 663 78 1128
281 1266 553 l29 58 0 1355 0 1355 -34 69 c-134 272 -611 477 -1283 551 -169
19 -641 27 -813 15z m795 -175 c601 -69 1050 -249 1160 -465 40 -79 22 -157
-57 -241 -182 -195 -614 -341 -1167 -394 -185 -18 -576 -20 -763 -4 -678 56
-1231 279 -1282 518 -16 75 8 137 81 211 193 194 667 343 1243 390 157 12 625
4 785 -15z m-2044 -916 c206 -155 584 -276 1054 -335 171 -21 684 -30 876 -15
559 44 1005 178 1267 381 l27 22 0 -271 c0 -309 0 -310 -77 -392 -182 -195
-614 -341 -1167 -394 -184 -17 -582 -20 -761 -5 -689 59 -1232 279 -1284 520
-10 48 -16 540 -7 540 3 0 35 -23 72 -51z m0 -820 c206 -155 584 -276 1054
-335 171 -21 684 -30 876 -15 559 44 1005 178 1267 381 l27 22 0 -306 c0 -347
0 -344 -76 -426 -191 -204 -671 -357 -1253 -401 -202 -15 -634 -6 -811 16
-642 80 -1101 283 -1150 508 -10 46 -15 607 -6 607 3 0 35 -23 72 -51z m-20
-874 c252 -193 703 -323 1264 -366 195 -15 655 -6 840 15 465 55 826 168 1063
332 l77 54 0 -270 c0 -307 0 -309 -76 -390 -191 -204 -671 -357 -1253 -401
-202 -15 -634 -6 -811 16 -362 45 -647 122 -860 231 -164 83 -255 167 -288
263 -12 33 -18 551 -7 551 3 0 25 -16 51 -35z"/>
</g>
</svg>
