<?xml version="1.0" standalone="no"?>
<!DOCTYPE svg PUBLIC "-//W3C//DTD SVG 20010904//EN"
 "http://www.w3.org/TR/2001/REC-SVG-20010904/DTD/svg10.dtd">
<svg version="1.0" xmlns="http://www.w3.org/2000/svg"
 width="512.000000pt" height="512.000000pt" viewBox="0 0 512.000000 512.000000"
 preserveAspectRatio="xMidYMid meet">

<g transform="translate(0.000000,512.000000) scale(0.100000,-0.100000)"
fill="#000000" stroke="none">
<path d="M2375 4629 c-286 -39 -574 -172 -778 -359 -79 -73 -99 -106 -99 -166
0 -89 67 -154 157 -154 58 0 66 5 187 107 135 115 314 203 488 240 124 26 353
24 478 -5 171 -39 339 -123 471 -235 120 -102 128 -107 186 -107 90 0 159 67
157 155 0 59 -21 93 -99 165 -183 168 -440 295 -694 345 -100 20 -356 28 -454
14z"/>
<path d="M2389 4145 c-175 -33 -350 -121 -474 -237 -47 -43 -68 -71 -75 -99
-29 -106 45 -199 157 -199 52 0 63 6 151 77 235 190 589 190 824 0 89 -72 99
-77 153 -77 107 0 180 92 154 196 -28 110 -277 274 -501 330 -91 22 -296 27
-389 9z"/>
<path d="M2497 3669 c-70 -8 -136 -32 -202 -74 -118 -74 -150 -170 -90 -262
43 -65 152 -85 216 -38 50 36 110 65 139 65 29 0 89 -29 139 -65 64 -47 173
-27 216 38 60 92 26 189 -93 265 -92 59 -208 84 -325 71z"/>
<path d="M681 3024 c-169 -45 -301 -180 -346 -351 -23 -87 -22 -1741 0 -1828
47 -178 197 -321 374 -355 74 -14 3628 -14 3702 0 131 25 266 124 328 239 63
118 61 91 61 1022 0 534 -4 866 -10 900 -25 131 -124 266 -239 328 -123 65 9
61 -1996 60 -1556 0 -1828 -2 -1874 -15z m3725 -330 c15 -11 37 -33 48 -48 21
-27 21 -34 21 -886 0 -852 0 -859 -21 -886 -11 -15 -33 -37 -48 -48 l-27 -21
-1818 0 -1818 0 -37 29 c-69 52 -66 7 -66 925 0 563 3 839 11 858 14 37 47 73
84 89 25 11 346 13 1837 11 l1807 -2 27 -21z"/>
<path d="M3615 2386 c-97 -43 -124 -171 -54 -251 45 -51 78 -57 301 -53 215 3
223 5 272 72 29 39 29 133 0 172 -50 67 -55 69 -282 71 -157 2 -214 0 -237
-11z"/>
<path d="M1055 1426 c-67 -29 -105 -106 -91 -181 9 -47 59 -102 104 -115 26
-8 497 -10 1514 -8 1473 3 1477 3 1504 24 53 39 69 71 69 134 0 63 -16 95 -69
134 -27 21 -30 21 -1514 23 -1221 2 -1492 0 -1517 -11z"/>
</g>
</svg>
