<?xml version="1.0" standalone="no"?>
<!DOCTYPE svg PUBLIC "-//W3C//DTD SVG 20010904//EN"
 "http://www.w3.org/TR/2001/REC-SVG-20010904/DTD/svg10.dtd">
<svg version="1.0" xmlns="http://www.w3.org/2000/svg"
 width="512.000000pt" height="512.000000pt" viewBox="0 0 512.000000 512.000000"
 preserveAspectRatio="xMidYMid meet">

<g transform="translate(0.000000,512.000000) scale(0.100000,-0.100000)"
fill="#ffffff" stroke="none">
<path d="M4464 4736 c-203 -47 -374 -216 -414 -413 -17 -81 -8 -235 18 -306
56 -156 195 -289 351 -338 77 -23 208 -27 286 -9 134 33 274 140 343 261 88
155 93 344 15 509 -41 86 -149 202 -223 240 -121 61 -260 82 -376 56z m255
-188 c79 -30 170 -122 200 -203 34 -89 38 -169 12 -251 -37 -119 -113 -201
-230 -245 -73 -27 -202 -24 -274 9 -65 29 -151 113 -184 181 -25 50 -28 67
-28 161 0 96 3 110 29 164 88 179 284 255 475 184z"/>
<path d="M3235 4325 c-32 -31 -33 -76 -2 -108 12 -14 84 -53 160 -87 75 -35
137 -66 137 -69 0 -4 -582 -273 -1294 -599 l-1295 -592 -63 48 c-76 58 -138
88 -221 107 -329 78 -657 -191 -657 -540 0 -73 34 -197 72 -264 44 -77 141
-172 213 -209 93 -47 160 -63 261 -63 134 0 251 43 344 127 21 19 43 34 49 34
10 0 2561 -1168 2594 -1187 4 -3 -59 -36 -140 -74 -81 -38 -156 -79 -165 -90
-27 -32 -23 -76 11 -110 16 -16 40 -29 53 -29 31 0 507 225 524 247 7 10 14
32 14 49 0 42 -204 492 -236 521 -33 30 -78 30 -109 -2 -37 -36 -32 -71 30
-207 30 -67 53 -123 51 -125 -3 -3 -565 254 -2251 1029 -143 65 -264 123 -268
127 -5 5 1 40 13 80 l22 71 1224 0 c696 0 1224 -4 1224 -9 0 -5 -58 -64 -130
-133 -120 -115 -130 -126 -130 -160 0 -55 36 -93 89 -93 40 0 46 5 247 205
113 113 212 218 220 233 28 52 14 73 -194 280 -182 181 -201 197 -233 197 -48
0 -79 -33 -79 -85 0 -35 8 -47 112 -152 l112 -113 -1233 2 -1234 3 -19 69
c-10 38 -17 70 -16 72 2 1 165 76 363 167 198 91 650 298 1005 460 1112 509
1153 527 1157 524 2 -2 -26 -68 -62 -147 -71 -156 -78 -194 -42 -228 30 -28
87 -29 111 -3 31 34 256 531 256 565 0 21 -8 40 -22 54 -37 34 -476 232 -515
232 -23 0 -42 -8 -58 -25z m-2538 -1495 c77 -36 141 -98 179 -176 26 -54 29
-68 29 -164 0 -95 -3 -110 -28 -160 -37 -73 -106 -141 -176 -176 -79 -39 -201
-45 -284 -14 -251 94 -327 409 -146 605 112 122 277 155 426 85z"/>
<path d="M4463 3025 c-200 -44 -373 -215 -413 -412 -17 -81 -8 -235 18 -306
53 -146 177 -272 322 -328 85 -33 247 -38 337 -11 188 58 325 200 373 388 48
188 1 369 -136 513 -132 140 -314 197 -501 156z m251 -185 c34 -13 78 -41 111
-71 208 -191 142 -530 -122 -629 -86 -32 -205 -25 -288 17 -73 38 -134 99
-172 173 -25 50 -28 65 -28 160 0 96 3 110 29 164 51 103 152 183 260 206 58
13 144 4 210 -20z"/>
<path d="M4515 1460 c-197 -21 -375 -162 -448 -357 -19 -49 -22 -78 -22 -188
1 -112 4 -138 24 -188 89 -225 316 -372 546 -353 335 27 569 350 487 674 -28
108 -70 182 -151 262 -117 116 -268 167 -436 150z m189 -190 c113 -43 191
-125 227 -244 26 -82 22 -162 -12 -251 -31 -83 -121 -173 -204 -205 -201 -77
-432 36 -492 239 -21 72 -13 198 15 264 24 53 97 136 149 168 84 52 221 64
317 29z"/>
</g>
</svg>
