<?xml version="1.0" standalone="no"?>
<!DOCTYPE svg PUBLIC "-//W3C//DTD SVG 20010904//EN"
 "http://www.w3.org/TR/2001/REC-SVG-20010904/DTD/svg10.dtd">
<svg version="1.0" xmlns="http://www.w3.org/2000/svg"
 width="512.000000pt" height="512.000000pt" viewBox="0 0 512.000000 512.000000"
 preserveAspectRatio="xMidYMid meet">

<g transform="translate(0.000000,512.000000) scale(0.100000,-0.100000)"
fill="#2E4B1D" stroke="none">
<path d="M2375 4900 c-737 -65 -1388 -456 -1789 -1072 -99 -153 -229 -427
-243 -512 -11 -72 76 -135 146 -107 37 16 49 34 90 141 244 626 800 1110 1466
1279 215 55 510 75 737 52 487 -51 933 -265 1283 -616 408 -407 625 -931 625
-1505 0 -574 -218 -1098 -625 -1505 -352 -353 -786 -560 -1284 -615 -155 -17
-442 -8 -586 19 -434 81 -803 268 -1113 565 -213 204 -387 461 -497 731 -51
128 -56 136 -91 153 -62 29 -133 -7 -150 -75 -13 -50 110 -332 221 -508 176
-281 439 -551 700 -721 304 -197 630 -319 990 -370 142 -20 445 -23 580 -5
428 56 802 208 1143 463 111 84 332 299 416 406 337 428 509 924 509 1462 0
538 -172 1034 -509 1462 -84 107 -305 323 -415 406 -340 254 -725 410 -1136
461 -123 15 -356 21 -468 11z"/>
<path d="M2385 3487 c-29 -29 -35 -42 -35 -78 l0 -43 347 -348 348 -348 -1473
0 c-1613 0 -1524 3 -1556 -59 -20 -38 -20 -64 0 -102 32 -62 -57 -59 1556 -59
l1473 0 -348 -348 c-330 -330 -347 -349 -347 -384 0 -77 50 -125 118 -114 32
5 94 63 489 458 l453 453 0 45 0 45 -453 453 c-428 427 -456 454 -495 459 -38
5 -45 2 -77 -30z"/>
</g>
</svg>
