<?xml version="1.0" standalone="no"?>
<!DOCTYPE svg PUBLIC "-//W3C//DTD SVG 20010904//EN"
 "http://www.w3.org/TR/2001/REC-SVG-20010904/DTD/svg10.dtd">
<svg version="1.0" xmlns="http://www.w3.org/2000/svg"
 width="512.000000pt" height="512.000000pt" viewBox="0 0 512.000000 512.000000"
 preserveAspectRatio="xMidYMid meet">

<g transform="translate(0.000000,512.000000) scale(0.100000,-0.100000)"
fill="#000000" stroke="none">
<path d="M3569 4969 c-167 -83 -359 -178 -427 -210 -138 -67 -167 -96 -158
-158 11 -71 38 -83 243 -108 l62 -8 -91 -105 c-744 -858 -1595 -1543 -2447
-1970 -98 -49 -367 -166 -461 -200 -164 -61 -221 -228 -118 -346 78 -88 160
-96 330 -30 569 222 1214 608 1793 1075 421 340 882 791 1259 1231 55 63 102
116 105 118 4 1 37 -50 75 -114 56 -96 73 -118 103 -131 31 -12 41 -13 71 -1
74 28 71 10 85 533 8 274 10 484 4 503 -9 37 -57 72 -98 72 -14 0 -162 -68
-330 -151z m275 -358 c-4 -177 -10 -321 -15 -321 -4 0 -28 36 -53 80 -47 81
-67 100 -108 100 -32 -1 -50 -18 -169 -160 -369 -444 -845 -915 -1284 -1271
-376 -305 -793 -585 -1194 -799 -251 -134 -634 -300 -693 -300 -38 0 -63 39
-51 77 8 24 29 36 159 89 217 89 359 155 536 250 863 463 1697 1161 2437 2039
108 129 121 159 83 205 -15 19 -33 24 -112 31 -52 5 -102 10 -110 12 -8 1 118
68 280 148 162 80 296 145 298 144 2 -2 0 -147 -4 -324z"/>
<path d="M3885 3749 c-36 -11 -55 -26 -78 -59 -15 -21 -17 -54 -17 -256 l0
-233 26 -20 c43 -34 86 -26 109 20 12 22 15 70 15 214 l0 185 200 0 200 0 0
-1540 0 -1540 -200 0 -200 0 -2 1199 c-3 1163 -4 1200 -22 1220 -25 27 -75 28
-104 1 l-22 -21 0 -1199 0 -1200 -175 0 -175 0 0 1166 0 1166 -39 39 -39 39
-267 0 c-295 0 -303 -2 -341 -64 -18 -30 -19 -75 -22 -1188 l-2 -1158 -170 0
-170 0 0 746 c0 731 0 747 -20 779 -37 61 -60 65 -330 65 -268 0 -290 -4 -333
-64 l-22 -31 -3 -748 -2 -747 -170 0 -170 0 0 330 c0 362 -1 368 -59 409 -28
20 -42 21 -291 21 -284 0 -299 -3 -336 -57 -16 -23 -19 -47 -19 -140 0 -99 2
-115 20 -132 34 -33 68 -36 101 -8 27 23 29 31 32 106 l4 81 199 0 199 0 0
-305 0 -305 -199 0 -199 0 -4 81 c-3 75 -5 83 -32 106 -33 28 -67 25 -101 -8
-16 -15 -21 -36 -23 -98 l-4 -79 -197 -4 c-218 -4 -244 -10 -281 -71 -18 -28
-20 -51 -20 -187 0 -173 8 -201 72 -240 33 -20 56 -20 2358 -20 2194 0 2327 1
2359 18 68 34 76 56 79 224 4 175 -6 213 -67 251 -34 21 -50 22 -238 25 l-203
4 0 1570 c0 1739 5 1602 -64 1644 -28 17 -56 19 -271 21 -132 1 -253 -2 -270
-8z m-595 -2099 l0 -1130 -200 0 -200 0 0 1130 0 1130 200 0 200 0 0 -1130z
m-1050 -410 l0 -720 -200 0 -200 0 0 720 0 720 200 0 200 0 0 -720z"/>
</g>
</svg>
