<?xml version="1.0" encoding="UTF-8"?>
<svg version="1.1" xmlns="http://www.w3.org/2000/svg" width="512" height="512">
<path d="M0 0 C1.19052979 -0.02231689 2.38105957 -0.04463379 3.60766602 -0.06762695 C11.72859945 -0.04629704 17.32364996 0.99681346 23.4921875 6.40234375 C24.03101563 7.05332031 24.56984375 7.70429687 25.125 8.375 C25.67929687 9.02339844 26.23359375 9.67179687 26.8046875 10.33984375 C31.28412097 16.84107557 30.92463728 23.80890917 30.25 31.4375 C28.56914417 38.09709333 23.78621678 42.62297447 18.25 46.4375 C14.27520338 48.33135038 10.799514 48.79649493 6.421875 49.078125 C5.063309 49.17548122 3.70483193 49.27408441 2.34643555 49.3737793 C1.63756195 49.42400238 0.92868835 49.47422546 0.19833374 49.52597046 C-46.13730339 52.9306283 -89.14609728 71.55906116 -120.06884766 106.94677734 C-143.07203422 134.00594138 -159.72356355 170.51881145 -159.953125 206.4609375 C-159.96018463 207.20013931 -159.96724426 207.93934113 -159.97451782 208.70094299 C-160.27616482 230.75531451 -160.27616482 230.75531451 -156.75 252.4375 C-156.55132324 253.25105957 -156.35264648 254.06461914 -156.14794922 254.90283203 C-145.60437718 297.47990831 -119.37744792 334.97811374 -81.9375 358.125 C-58.79739986 372.06499671 -32.96929556 381.13025085 -5.87890625 382.83203125 C-4.80962891 382.90099609 -3.74035156 382.96996094 -2.63867188 383.04101562 C-0.42581874 383.18004985 1.78777949 383.3077047 4.00195312 383.42382812 C11.76568785 383.95200514 17.56238203 385.20601596 23.4921875 390.40234375 C24.03101563 391.05332031 24.56984375 391.70429688 25.125 392.375 C25.67929687 393.02339844 26.23359375 393.67179687 26.8046875 394.33984375 C31.28412097 400.84107557 30.92463728 407.80890917 30.25 415.4375 C28.56914417 422.09709333 23.78621678 426.62297447 18.25 430.4375 C-5.69758232 441.70513461 -45.98889512 428.13886841 -69.6875 419.75 C-105.88444919 406.4524506 -138.88895318 382.74636843 -162.75 352.4375 C-163.52988281 351.48617188 -164.30976563 350.53484375 -165.11328125 349.5546875 C-187.23489628 321.96441166 -202.26633074 287.33636039 -207.75 252.4375 C-207.92370117 251.39247314 -208.09740234 250.34744629 -208.27636719 249.27075195 C-209.90444736 238.54094906 -210.14910423 227.96009652 -210.125 217.125 C-210.12445618 216.20296783 -210.12391235 215.28093567 -210.12335205 214.33096313 C-210.06168522 191.52188363 -207.02489231 170.12436323 -199.75 148.4375 C-199.46672852 147.58913574 -199.18345703 146.74077148 -198.89160156 145.86669922 C-192.0323572 125.77025014 -182.3314762 106.56898951 -169.75 89.4375 C-169.32928223 88.86273926 -168.90856445 88.28797852 -168.47509766 87.69580078 C-151.08379124 64.21328896 -129.29975247 43.77059262 -103.75 29.4375 C-102.95803223 28.98906738 -102.16606445 28.54063477 -101.35009766 28.07861328 C-80.3206165 16.29542164 -58.40817303 8.08630308 -34.75 3.4375 C-33.56374023 3.19410889 -33.56374023 3.19410889 -32.35351562 2.94580078 C-21.59756293 0.79771377 -10.96188856 0.12294371 0 0 Z " fill="#4A2F1D" transform="translate(249.75,39.5625)"/>
<path d="M0 0 C1.16144531 -0.02835938 2.32289063 -0.05671875 3.51953125 -0.0859375 C12.4436758 1.03552049 17.87680965 6.48300346 23.94262695 12.61254883 C24.77778336 13.44069595 25.61293976 14.26884308 26.47340393 15.12208557 C29.21764437 17.84879174 31.94707619 20.58978489 34.67578125 23.33203125 C36.58381703 25.23917507 38.49424305 27.1439195 40.40434265 29.04899597 C44.39990809 33.03730306 48.38700843 37.03392678 52.36938477 41.03540039 C56.96422669 45.65202249 61.57332089 50.25403827 66.19005233 54.84876233 C70.16535768 58.80587971 74.13277006 62.77078388 78.09376305 66.74222773 C80.45441933 69.10909842 82.81837003 71.47237556 85.18798256 73.83030128 C87.82824456 76.46039185 90.45532278 79.10298834 93.0793457 81.74926758 C93.86015503 82.52197998 94.64096436 83.29469238 95.44543457 84.09082031 C101.57944138 90.32143313 104.61485261 95.29147358 104.625 104.3125 C104.65400391 106.02759766 104.65400391 106.02759766 104.68359375 107.77734375 C103.45906567 116.6575828 98.06856913 122.07512344 91.94995117 128.13012695 C91.12180405 128.96528336 90.29365692 129.80043976 89.44041443 130.66090393 C86.71370826 133.40514437 83.97271511 136.13457619 81.23046875 138.86328125 C79.32332493 140.77131703 77.4185805 142.68174305 75.51350403 144.59184265 C71.52519694 148.58740809 67.52857322 152.57450843 63.52709961 156.55688477 C58.91047751 161.15172669 54.30846173 165.76082089 49.71373767 170.37755233 C45.75662029 174.35285768 41.79171612 178.32027006 37.82027227 182.28126305 C35.45340158 184.64191933 33.09012444 187.00587003 30.73219872 189.37548256 C28.10210815 192.01574456 25.45951166 194.64282278 22.81323242 197.2668457 C22.04052002 198.04765503 21.26780762 198.82846436 20.47167969 199.63293457 C14.24106687 205.76694138 9.27102642 208.80235261 0.25 208.8125 C-6.99303756 208.62068227 -11.51846949 207.51186007 -16.77734375 202.50390625 C-22.02636563 196.82551653 -24.10104473 192.40399273 -24.1875 184.5625 C-24.21585938 183.40105469 -24.24421875 182.23960937 -24.2734375 181.04296875 C-23.09647662 171.67715292 -17.13762717 166.15325094 -10.671875 159.84375 C-9.78969299 158.96722778 -8.90751099 158.09070557 -7.99859619 157.18762207 C-5.67127605 154.87880258 -3.3355797 152.5789337 -0.99536133 150.28320312 C1.3984512 147.93058587 3.78073404 145.56635424 6.1640625 143.203125 C10.82807849 138.58306526 15.50334221 133.9746325 20.1875 129.375 C18.38187088 129.37280016 18.38187088 129.37280016 16.5397644 129.37055588 C-12.04582204 129.33484077 -40.63131928 129.27858065 -69.21681088 129.19707905 C-72.73649981 129.1870618 -76.2561892 129.17721763 -79.77587891 129.16748047 C-80.47657489 129.1655391 -81.17727088 129.16359772 -81.89920008 129.16159752 C-93.2393115 129.13059081 -104.57940269 129.11360059 -115.91954851 129.10180578 C-127.55877423 129.08938731 -139.1978879 129.06157348 -150.83704758 129.02038693 C-157.37327382 128.99774467 -163.90934874 128.98209099 -170.44561768 128.98311615 C-176.59831873 128.98386111 -182.75068491 128.9659757 -188.90329933 128.93383217 C-191.16072882 128.92531678 -193.41819579 128.92359431 -195.67563438 128.92919731 C-198.76046591 128.93583376 -201.84423091 128.917924 -204.92895508 128.89398193 C-205.8200252 128.90174235 -206.71109531 128.90950277 -207.62916756 128.91749835 C-214.55790146 128.82245366 -219.80779733 127.00804084 -225.0546875 122.41015625 C-225.59351563 121.75917969 -226.13234375 121.10820312 -226.6875 120.4375 C-227.24179688 119.78910156 -227.79609375 119.14070313 -228.3671875 118.47265625 C-232.84662097 111.97142443 -232.48713728 105.00359083 -231.8125 97.375 C-230.13164417 90.71540667 -225.34871678 86.18952553 -219.8125 82.375 C-215.06922904 79.8753136 -210.51729651 80.08528696 -205.28971863 80.0965271 C-204.3258117 80.0907347 -203.36190477 80.0849423 -202.36878854 80.07897437 C-199.13669434 80.0619598 -195.9047428 80.05909658 -192.67260742 80.05615234 C-190.35662485 80.04685519 -188.04064564 80.03668683 -185.72467041 80.02571106 C-179.43385194 79.99837313 -173.1430559 79.98325036 -166.85219359 79.97028303 C-160.27914714 79.95466913 -153.70614663 79.92787336 -147.13313293 79.9022522 C-136.09959422 79.86042573 -125.06604941 79.82616968 -114.0324707 79.796875 C-102.66852006 79.76668424 -91.30459454 79.73233155 -79.94067383 79.69238281 C-79.24004348 79.68992126 -78.53941314 79.68745972 -77.81755158 79.68492357 C-74.30264776 79.67254887 -70.78774424 79.66009236 -67.27284086 79.64759517 C-38.1194301 79.54404645 -8.96598473 79.45498413 20.1875 79.375 C19.68051071 78.87689316 19.17352142 78.37878632 18.65116882 77.86558533 C13.85925185 73.15404184 9.07717457 68.43275447 4.30572796 63.70047665 C1.85272479 61.26828803 -0.60383227 58.83993576 -3.0690918 56.42016602 C-5.90751622 53.63378838 -8.72945717 50.83103896 -11.55078125 48.02734375 C-12.43212234 47.1666478 -13.31346344 46.30595184 -14.22151184 45.41917419 C-20.78750092 38.85560247 -24.23920536 34.03393392 -24.25 24.4375 C-24.05818227 17.19446244 -22.94936007 12.66903051 -17.94140625 7.41015625 C-12.26301653 2.16113437 -7.84149273 0.08645527 0 0 Z " fill="#4A2F1D" transform="translate(367.8125,151.625)"/>
</svg>
