<?xml version="1.0" encoding="UTF-8"?>
<svg version="1.1" xmlns="http://www.w3.org/2000/svg" width="842" height="454">
<path d="M0 0 C2.08086887 2.08086887 1.1858231 6.59636517 1.20532227 9.46704102 C1.21522186 10.35476196 1.22512146 11.24248291 1.23532104 12.15710449 C1.26703484 15.10601082 1.29173234 18.05493329 1.31640625 21.00390625 C1.33696726 23.0427239 1.35796349 25.08153721 1.37937927 27.12034607 C1.4346881 32.49779755 1.48405838 37.87528806 1.53222656 43.25280762 C1.58237742 48.73563121 1.63809689 54.21839784 1.69335938 59.70117188 C1.80104865 70.4673993 1.90246954 81.2336761 2 92 C5.8397501 88.25922234 9.66609897 84.50542067 13.48071289 80.73901367 C14.77985825 79.45996738 16.08257323 78.18453618 17.38891602 76.9128418 C19.26751654 75.08283193 21.13283907 73.24014751 22.99609375 71.39453125 C23.58152451 70.82974564 24.16695526 70.26496002 24.77012634 69.68305969 C28.18937839 66.26571896 29.01059401 64.94702995 30 60 C26.7 58.68 23.4 57.36 20 56 C20 54.02 20 52.04 20 50 C32.87 50 45.74 50 59 50 C59.33 51.65 59.66 53.3 60 55 C58.06694508 57.85386824 55.68701517 58.62688619 52.5 59.6875 C42.29330059 63.62796741 34.75223878 70.91554151 27.3125 78.6796875 C25 81 25 81 22 83 C23.37891225 87.02900924 25.22689016 89.72366378 28 92.9375 C31.50039579 97.10889817 34.75107293 101.35383234 37.875 105.8125 C41.43486785 110.87573554 45.11365272 115.82014861 48.9375 120.6875 C49.39817871 121.27571533 49.85885742 121.86393066 50.33349609 122.4699707 C54.9006233 128.55569436 54.9006233 128.55569436 61.6875 131.1875 C62.49574219 131.34605469 63.30398438 131.50460938 64.13671875 131.66796875 C64.75160156 131.77753906 65.36648438 131.88710937 66 132 C67.125 136.75 67.125 136.75 66 139 C42.67466201 141.23385157 42.67466201 141.23385157 36.73974609 137.62597656 C33.07726348 133.99703875 30.91696227 129.74100447 29 125 C25.91640349 125.64458097 22.83317045 126.29088443 19.75 126.9375 C18.87730469 127.11990234 18.00460937 127.30230469 17.10546875 127.49023438 C15.83896484 127.75610352 15.83896484 127.75610352 14.546875 128.02734375 C13.77182617 128.18968506 12.99677734 128.35202637 12.19824219 128.51928711 C10.12063563 128.97361933 8.06015019 129.4726508 6 130 C6.56589844 130.15855469 7.13179687 130.31710938 7.71484375 130.48046875 C9.93062901 131.18531433 11.95077184 131.89756713 14 133 C15.0625 135.625 15.0625 135.625 15 138 C14 139 14 139 12.22520447 139.11352539 C11.45213455 139.10828857 10.67906464 139.10305176 9.88256836 139.09765625 C9.00753159 139.09435303 8.13249481 139.0910498 7.23094177 139.08764648 C6.27687943 139.07934814 5.32281708 139.0710498 4.33984375 139.0625 C3.36141006 139.05871338 2.38297638 139.05492676 1.37489319 139.05102539 C-2.82523662 139.03464939 -7.02527049 139.00672538 -11.2253418 138.97949219 C-14.28694197 138.96130967 -17.34852574 138.94926822 -20.41015625 138.9375 C-21.35004898 138.92920166 -22.28994171 138.92090332 -23.25831604 138.91235352 C-28.60553926 138.89266448 -33.70929806 139.21372732 -39 140 C-38.97643433 140.90540527 -38.97643433 140.90540527 -38.95239258 141.82910156 C-38.60184393 157.34790491 -39.02160855 169.53781496 -46.890625 183.30859375 C-48.20238158 186.49098913 -48.1800281 187.79408294 -47 191 C-45.54989257 193.03959535 -45.54989257 193.03959535 -43.625 194.9375 C-40.09294276 198.73398933 -36.85411588 202.65123232 -33.6875 206.75 C-29.46971483 212.20307317 -25.10660882 217.49430196 -20.52807617 222.64941406 C-17.95258916 225.61225355 -16.21538201 228.25772206 -15 232 C-17.26129616 233.86698825 -19.53265728 235.71841047 -21.8125 237.5625 C-22.45509766 238.09552734 -23.09769531 238.62855469 -23.75976562 239.17773438 C-24.38173828 239.67724609 -25.00371094 240.17675781 -25.64453125 240.69140625 C-26.21534424 241.15748291 -26.78615723 241.62355957 -27.37426758 242.10375977 C-27.91075928 242.39951904 -28.44725098 242.69527832 -29 243 C-32.95068613 241.68310462 -34.46258943 239.14625289 -36.875 235.9375 C-37.85407529 234.66168984 -38.83460517 233.38699496 -39.81640625 232.11328125 C-40.33219238 231.44248535 -40.84797852 230.77168945 -41.37939453 230.08056641 C-44.64591068 225.88694625 -48.03346269 221.7903939 -51.40771484 217.68334961 C-55.06440896 213.21245619 -58.56770314 208.64527133 -62 204 C-62.66644531 204.44730469 -63.33289063 204.89460937 -64.01953125 205.35546875 C-74.01009196 211.90871766 -85.46792446 218.6949626 -97.71484375 219.1328125 C-101.82035356 219.31850911 -105.12669806 219.60118467 -109 221 C-111.49856253 224.31958218 -112.87780352 227.5469717 -114.40234375 231.375 C-118.22344241 240.04487667 -126.6299834 246.45199336 -135.32421875 249.9296875 C-137.53472508 250.69697069 -139.74553914 251.37521724 -142 252 C-142.804375 252.226875 -143.60875 252.45375 -144.4375 252.6875 C-153.13069017 253.74764514 -161.42507744 252.50531556 -170 251 C-170.27674561 251.50861572 -170.55349121 252.01723145 -170.83862305 252.54125977 C-172.11692968 254.8842455 -173.40216098 257.2233653 -174.6875 259.5625 C-175.34008789 260.76229492 -175.34008789 260.76229492 -176.00585938 261.98632812 C-178.7214095 266.91454873 -181.63789909 271.48690959 -185 276 C-189.30764815 274.43358249 -193.06171464 272.31663844 -197 270 C-196.41432842 265.98260956 -195.14706444 263.16648562 -193.05859375 259.69921875 C-192.47529297 258.72275391 -191.89199219 257.74628906 -191.29101562 256.74023438 C-190.67935547 255.73283203 -190.06769531 254.72542969 -189.4375 253.6875 C-188.51420898 252.14739258 -188.51420898 252.14739258 -187.57226562 250.57617188 C-186.05463946 248.04679494 -184.53038935 245.52166788 -183 243 C-183.39541992 242.4848584 -183.79083984 241.9697168 -184.19824219 241.43896484 C-187.1080015 237.61112937 -189.89610061 233.82839178 -192.25 229.625 C-192.72953125 228.79226562 -193.2090625 227.95953125 -193.703125 227.1015625 C-195.47999976 222.85204876 -196.22485036 218.52540797 -197 214 C-198.08885498 213.92483154 -198.08885498 213.92483154 -199.19970703 213.84814453 C-202.50876123 213.61514231 -205.81682713 213.37018538 -209.125 213.125 C-210.26710937 213.04636719 -211.40921875 212.96773437 -212.5859375 212.88671875 C-213.69453125 212.80292969 -214.803125 212.71914062 -215.9453125 212.6328125 C-216.96125488 212.55949707 -217.97719727 212.48618164 -219.02392578 212.41064453 C-222.20237688 211.97207564 -224.99277738 211.10173345 -228 210 C-227.67 206.37 -227.34 202.74 -227 199 C-216.9304214 199.59788123 -206.99375949 200.66317243 -197 202 C-196.92523438 201.40574219 -196.85046875 200.81148437 -196.7734375 200.19921875 C-194.84340982 188.03247566 -188.58556301 178.68743172 -179 171 C-176.85205078 170.38134766 -176.85205078 170.38134766 -175 170 C-175.49113281 168.11474609 -175.49113281 168.11474609 -175.9921875 166.19140625 C-177.20361618 160.73997719 -177.22562382 155.49890111 -177.125 149.9375 C-177.11597656 148.97650391 -177.10695313 148.01550781 -177.09765625 147.02539062 C-177.07435208 144.68332195 -177.04164058 142.34180208 -177 140 C-177.69480469 140.15984375 -178.38960938 140.3196875 -179.10546875 140.484375 C-187.30723881 141.94541906 -195.56009578 141.92285859 -203 138 C-208.37248603 132.62751397 -209.82972767 126.35439988 -210.12025452 118.92471313 C-210.11803391 117.83661346 -210.11581329 116.74851379 -210.11352539 115.62744141 C-210.11344986 114.38660797 -210.11337433 113.14577454 -210.11329651 111.86734009 C-210.10819113 110.52874714 -210.10297515 109.19015461 -210.09765625 107.8515625 C-210.09578906 106.47008312 -210.09436658 105.08860308 -210.09336853 103.7071228 C-210.08956702 100.08711897 -210.07975716 96.46715583 -210.06866455 92.84716797 C-210.05839935 89.14681549 -210.05386 85.44645639 -210.04882812 81.74609375 C-210.03813258 74.49737736 -210.02108485 67.2486944 -210 60 C-211.07121094 60.01160156 -212.14242187 60.02320313 -213.24609375 60.03515625 C-214.64322743 60.04453299 -216.04036299 60.05363331 -217.4375 60.0625 C-218.14455078 60.07087891 -218.85160156 60.07925781 -219.58007812 60.08789062 C-221.38693559 60.09653588 -223.19387603 60.05220011 -225 60 C-226 59 -226 59 -226.1328125 57.1875 C-226.12894531 56.1046875 -226.12894531 56.1046875 -226.125 55 C-226.12757813 54.278125 -226.13015625 53.55625 -226.1328125 52.8125 C-226 51 -226 51 -225 50 C-222.3013095 49.92674564 -219.63497444 49.90777649 -216.9375 49.9375 C-214.318125 49.958125 -211.69875 49.97875 -209 50 C-209 41.09 -209 32.18 -209 23 C-203.39 23 -197.78 23 -192 23 C-192 31.91 -192 40.82 -192 50 C-183.75 50 -175.5 50 -167 50 C-167 53.3 -167 56.6 -167 60 C-175.25 60 -183.5 60 -192 60 C-191.93692633 67.57197648 -191.86138463 75.14363589 -191.76428509 82.71524906 C-191.71968094 86.23161053 -191.68040362 89.7478588 -191.65356445 93.2644043 C-191.62242357 97.313281 -191.56763901 101.36154538 -191.51171875 105.41015625 C-191.50532883 106.66458023 -191.4989389 107.91900421 -191.49235535 109.21144104 C-191.38656144 115.52190909 -191.19451998 120.47888093 -188 126 C-185.13400806 128.15551494 -182.27292565 128.34687429 -178.75 128.625 C-177.85796875 128.69976562 -176.9659375 128.77453125 -176.046875 128.8515625 C-175.03367187 128.92503906 -175.03367187 128.92503906 -174 129 C-173.649375 127.741875 -173.29875 126.48375 -172.9375 125.1875 C-169.52571302 115.06322048 -161.76689189 102.68587687 -152.203125 97.4765625 C-148.7552352 95.55782157 -147.11778562 94.38329165 -145 91 C-143.52440159 82.71693442 -142.54403306 70.91020251 -146.38525391 63.23046875 C-148.38479599 60.46847654 -149.99813415 59.80584907 -153.1875 58.6875 C-154.08855469 58.36136719 -154.98960937 58.03523438 -155.91796875 57.69921875 C-156.60503906 57.46847656 -157.29210937 57.23773438 -158 57 C-158 55.02 -158 53.04 -158 51 C-154.33385091 50.66080904 -150.6670121 50.32971919 -147 50 C-145.97003906 49.90460938 -144.94007813 49.80921875 -143.87890625 49.7109375 C-138.23175329 49.20736972 -132.67010449 48.78603379 -127 49 C-125.33657163 50.66342837 -125.63951903 52.7825709 -125.4375 55.0625 C-125.31181641 56.44115234 -125.31181641 56.44115234 -125.18359375 57.84765625 C-125.12300781 58.55792969 -125.06242187 59.26820312 -125 60 C-124.45472656 59.46890625 -123.90945313 58.9378125 -123.34765625 58.390625 C-116.57315046 52.04459222 -110.77132253 47.93668008 -101.3125 47.4375 C-97.73342527 47.58286858 -95.32071676 47.95203907 -92.4375 50.125 C-88.71018036 54.52132572 -87.75820602 57.89130076 -88.125 63.5625 C-88.76764804 67.74324326 -89.50023384 70.35383534 -93 73 C-97.74603278 73.89789809 -101.65610225 73.60338266 -106.0625 71.625 C-108.95181738 67.71044097 -108.90003656 63.76189495 -109 59 C-110.41719242 59.62380692 -111.8337306 60.2491003 -113.25 60.875 C-114.03890625 61.22304687 -114.8278125 61.57109375 -115.640625 61.9296875 C-116.41921875 62.28289062 -117.1978125 62.63609375 -118 63 C-118.73347656 63.33128906 -119.46695313 63.66257813 -120.22265625 64.00390625 C-122.50588945 65.28352046 -123.00568571 66.62894284 -124 69 C-124.33 69.33 -124.66 69.66 -125 70 C-125.23481693 72.18292774 -125.41363323 74.37203174 -125.5625 76.5625 C-125.68818359 78.35880859 -125.68818359 78.35880859 -125.81640625 80.19140625 C-125.87699219 81.11824219 -125.93757813 82.04507813 -126 83 C-125.01773438 82.7834375 -125.01773438 82.7834375 -124.015625 82.5625 C-103.6378666 78.41787117 -85.82187422 82.8178488 -68 93 C-68.0812083 88.95753135 -68.19402581 84.91653464 -68.3125 80.875 C-68.33505859 79.73289062 -68.35761719 78.59078125 -68.38085938 77.4140625 C-68.54370293 69.25062989 -68.54370293 69.25062989 -72 62 C-75.90019973 59.90544829 -79.62919013 58.66224392 -84 58 C-84 55.69 -84 53.38 -84 51 C-79.97954457 50.66200308 -75.95858312 50.33043881 -71.9375 50 C-70.2369043 49.85691406 -70.2369043 49.85691406 -68.50195312 49.7109375 C-57.00824336 48.77267548 -57.00824336 48.77267548 -52 49 C-51 50 -51 50 -50.88215637 52.40672302 C-50.88470932 53.4757637 -50.88726227 54.54480438 -50.88989258 55.64624023 C-50.88931351 56.85517441 -50.88873444 58.06410858 -50.88813782 59.30967712 C-50.89024765 60.62931961 -50.89235748 61.9489621 -50.89453125 63.30859375 C-50.8836558 66.08531059 -50.86613847 68.86198359 -50.84960938 71.63867188 C-50.8253637 76.02967777 -50.80946415 80.42021617 -50.82495117 84.8112793 C-50.83669754 88.35959543 -50.81898323 91.90674684 -50.78250694 95.45488167 C-50.76982533 97.44983166 -50.78784645 99.44490188 -50.80659485 101.43980408 C-50.70876922 108.84745006 -49.81944066 113.74495231 -45.48075867 119.8341217 C-43.9067381 122.13641246 -42.94916062 124.3857334 -42 127 C-41.38479492 126.84853516 -40.76958984 126.69707031 -40.13574219 126.54101562 C-37.34163469 125.85592703 -34.54586095 125.17789551 -31.75 124.5 C-30.29787109 124.14228516 -30.29787109 124.14228516 -28.81640625 123.77734375 C-27.88183594 123.55175781 -26.94726562 123.32617188 -25.984375 123.09375 C-25.12553711 122.88427734 -24.26669922 122.67480469 -23.38183594 122.45898438 C-21 122 -21 122 -17 122 C-16.95363352 108.95214565 -16.9181088 95.90431095 -16.89637566 82.85639095 C-16.88594419 76.79754155 -16.87179646 70.73874857 -16.84912109 64.67993164 C-16.82737023 58.83145659 -16.81542658 52.98303577 -16.81024551 47.13452339 C-16.80655381 44.90463978 -16.79934484 42.67475909 -16.78853989 40.44489861 C-16.77399534 37.31858815 -16.77202332 34.19250102 -16.77294922 31.06616211 C-16.76216339 29.68727562 -16.76216339 29.68727562 -16.75115967 28.28053284 C-16.76761031 23.13798929 -17.16139606 18.82775654 -19 14 C-23.46861728 9.95696532 -27.23352337 9.48868446 -33 9 C-34 8 -34 8 -34.0625 5.4375 C-34.041875 4.633125 -34.02125 3.82875 -34 3 C-23.22541822 -0.39378632 -11.24178444 -0.68010796 0 0 Z M2 100 C0.01997912 103.96004177 0.81515316 108.95867244 0.8125 113.3125 C0.80025391 114.35857422 0.78800781 115.40464844 0.77539062 116.48242188 C0.77345703 117.49498047 0.77152344 118.50753906 0.76953125 119.55078125 C0.76336792 120.93777222 0.76336792 120.93777222 0.75708008 122.3527832 C1.02055325 125.2239788 1.80801084 127.38837154 3 130 C3.66 130 4.32 130 5 130 C4.85866501 128.22880197 4.71176792 126.45804713 4.5625 124.6875 C4.44068359 123.20830078 4.44068359 123.20830078 4.31640625 121.69921875 C4.08187441 118.90624401 4.08187441 118.90624401 3 116 C3.556875 115.95101562 4.11375 115.90203125 4.6875 115.8515625 C9.96567265 115.33444423 14.88362365 114.39537537 20 113 C18.52769684 108.68711193 16.23423235 105.28218566 13.5 101.6875 C13.09652344 101.13771484 12.69304687 100.58792969 12.27734375 100.02148438 C11.23731309 98.63992549 10.12366546 97.31443702 9 96 C5.83622331 96 4.31144724 97.98489215 2 100 Z M-126 107 C-126.14546783 110.24952748 -126.2341168 113.49821713 -126.3125 116.75 C-126.35439453 117.67039062 -126.39628906 118.59078125 -126.43945312 119.5390625 C-126.61750132 125.02970612 -126.61750132 125.02970612 -123.8125 129.5625 C-121.02347745 130.98800041 -118.77074874 131.7566802 -115.6875 132.25 C-114.80449219 132.39953125 -113.92148437 132.5490625 -113.01171875 132.703125 C-112.34785156 132.80109375 -111.68398438 132.8990625 -111 133 C-110.34 134.98 -109.68 136.96 -109 139 C-123.85 139 -138.7 139 -154 139 C-154.81565941 143.07829707 -155.13466868 146.33314493 -155.125 150.4375 C-155.12757813 151.52933594 -155.13015625 152.62117188 -155.1328125 153.74609375 C-155.00359489 156.91192524 -154.59097317 159.89035545 -154 163 C-152.44152344 163.23783203 -152.44152344 163.23783203 -150.8515625 163.48046875 C-136.47681288 165.81813522 -125.1161389 170.36968805 -116.109375 182.55859375 C-113.1869854 187.21881212 -111.16795782 191.62739404 -110 197 C-96.37104172 197.85626963 -86.21300018 194.00520603 -75.875 185.1875 C-66.8357903 176.69612119 -61.2493089 166.35776415 -60.7890625 153.8515625 C-60.55106267 146.31644165 -60.55106267 146.31644165 -62 139 C-68.27 139 -74.54 139 -81 139 C-81 136.69 -81 134.38 -81 132 C-79.9275 132.04125 -78.855 132.0825 -77.75 132.125 C-73.43479134 132.12803042 -73.43479134 132.12803042 -70 130 C-68.96525735 126.71067546 -68.96525735 126.71067546 -69 123 C-75.21647085 113.26754671 -86.33815152 107.55394949 -97 104 C-100.39128206 103.74481289 -103.78761856 103.76864226 -107.1875 103.75 C-108.10853516 103.729375 -109.02957031 103.70875 -109.97851562 103.6875 C-116.03544199 103.65311007 -120.46287141 104.52748665 -126 107 Z M-145 121 C-146.05895896 122.64270642 -147.07247474 124.31485062 -148.0625 126 C-148.61035156 126.928125 -149.15820312 127.85625 -149.72265625 128.8125 C-150.14417969 129.534375 -150.56570313 130.25625 -151 131 C-150.01 131.495 -150.01 131.495 -149 132 C-146.35832772 130.47208796 -146.35832772 130.47208796 -144 128 C-143.58228196 124.33200185 -143.58228196 124.33200185 -144 121 C-144.33 121 -144.66 121 -145 121 Z M-141 183 C-136.97791392 188.29189549 -136.97791392 188.29189549 -131 191 C-135.02208608 185.70810451 -135.02208608 185.70810451 -141 183 Z M-172.3125 187.9375 C-178.16725216 193.9850012 -180.21565759 199.52200777 -180.5625 207.9375 C-180.28636188 216.47937259 -177.46497606 222.50377428 -171.875 228.875 C-166.5447265 233.77653411 -159.55968272 236.13604478 -152.375 236.4375 C-143.39632913 235.92534765 -137.1077264 232.51933405 -131 226 C-129.18243562 223.72804452 -127.59395184 221.44073875 -126 219 C-127.62373599 215.75252803 -131.14760607 215.17333907 -134.375 213.875 C-148.06276341 208.11341365 -159.01367139 199.36214315 -166.87109375 186.6875 C-167.24363281 186.130625 -167.61617188 185.57375 -168 185 C-169.86389931 185 -171.02571594 186.72235702 -172.3125 187.9375 Z " fill="#FFFFFF" transform="translate(447,21)"/>
<path d="M0 0 C3.0064523 1.31037806 4.18086047 2.77642877 6.125 5.41015625 C6.81207031 6.31636719 7.49914062 7.22257812 8.20703125 8.15625 C8.92246094 9.10628906 9.63789063 10.05632812 10.375 11.03515625 C11.84503261 12.85507229 13.3242848 14.66757847 14.8125 16.47265625 C15.55371094 17.37886719 16.29492188 18.28507812 17.05859375 19.21875 C18.66807214 21.17563688 20.28588239 23.12568879 21.91015625 25.0703125 C22.72355469 26.04871094 23.53695312 27.02710938 24.375 28.03515625 C25.1175 28.92203125 25.86 29.80890625 26.625 30.72265625 C28.375 33.03515625 28.375 33.03515625 29.375 36.03515625 C29.98085938 35.52726562 30.58671875 35.019375 31.2109375 34.49609375 C48.96269743 19.91234021 69.4621368 12.27813891 92.5625 14.31640625 C114.12246729 16.81890245 133.19374198 26.50665552 147.375 43.03515625 C157.17036079 56.01521563 164.37985209 71.63029376 165.375 88.03515625 C165.45427734 89.30359375 165.45427734 89.30359375 165.53515625 90.59765625 C166.22204207 112.57800238 158.47544036 133.89880177 143.375 150.03515625 C142.715 150.03515625 142.055 150.03515625 141.375 150.03515625 C141.045 151.02515625 140.715 152.01515625 140.375 153.03515625 C126.13476763 167.30703358 105.84327717 174.21097788 86.0625 174.34765625 C64.54075253 174.34765625 46.30682807 167.76205615 30.375 153.03515625 C29.72144531 152.44992187 29.06789063 151.8646875 28.39453125 151.26171875 C14.36944025 138.07256033 5.86711746 118.03206006 5.171875 98.90625 C4.91082882 84.09312611 6.5941383 68.01313476 15.15625 55.4140625 C15.5584375 54.62902344 15.960625 53.84398437 16.375 53.03515625 C15.26185599 50.1918889 13.6597756 47.97498085 11.72265625 45.63671875 C11.19865234 44.99911621 10.67464844 44.36151367 10.13476562 43.70458984 C9.57466797 43.02992676 9.01457031 42.35526367 8.4375 41.66015625 C7.26074878 40.22866139 6.08498559 38.79635382 4.91015625 37.36328125 C4.02287842 36.28143555 4.02287842 36.28143555 3.11767578 35.17773438 C0.04759255 31.40314058 -2.94521295 27.56858387 -5.93334961 23.72900391 C-8.42462848 20.51828388 -8.42462848 20.51828388 -11.08203125 17.44628906 C-14.58731868 13.59095571 -14.58731868 13.59095571 -14.765625 10.9609375 C-13.07823589 8.1120237 -10.92004851 6.32878597 -8.375 4.22265625 C-6.94414062 3.00642578 -6.94414062 3.00642578 -5.484375 1.765625 C-2.625 0.03515625 -2.625 0.03515625 0 0 Z M37.375 53.03515625 C24.29482133 68.76706704 21.16613204 86.70804877 22.55078125 106.5546875 C24.84663637 121.02134087 35.72531722 136.43286555 47.25 144.91015625 C63.06599797 155.11322119 78.98321941 159.03242302 97.65625 156.609375 C110.52579629 153.78983731 121.2371378 147.4122295 130.375 138.03515625 C131.08269531 137.3596875 131.79039062 136.68421875 132.51953125 135.98828125 C144.26442134 124.04128024 148.24636971 107.59993988 148.43359375 91.30810547 C148.08221531 77.67755027 142.57531885 65.6156524 134.375 55.03515625 C133.8284375 54.32230469 133.281875 53.60945313 132.71875 52.875 C123.63123627 41.75136881 108.9253662 33.34592139 94.56103516 31.71582031 C91.59596201 31.56227278 88.65645118 31.5162944 85.6875 31.53515625 C84.11029175 31.54373657 84.11029175 31.54373657 82.5012207 31.55249023 C64.4000481 31.96511194 49.81461097 40.08520226 37.375 53.03515625 Z " fill="#FFFFFF" transform="translate(440.625,260.96484375)"/>
<path d="M0 0 C9.26776008 7.57134928 15.98722975 19.2265498 17.22753906 31.19580078 C18.25445479 46.87402671 15.13828934 59.98364389 5.0703125 72.375 C-3.39290945 81.55124065 -14.71817987 87.64469601 -27.26171875 88.3359375 C-42.51561547 88.64661445 -56.03730497 85.48125854 -67.625 74.9375 C-72.31632308 69.98865799 -75.60049562 63.8718712 -79 58 C-79.75095947 58.18175781 -80.50191895 58.36351562 -81.27563477 58.55078125 C-84.70268128 59.37536559 -88.13250376 60.18777689 -91.5625 61 C-92.74392578 61.28617187 -93.92535156 61.57234375 -95.14257812 61.8671875 C-107.21732333 64.70830402 -107.21732333 64.70830402 -112 64 C-113.99609375 62.35546875 -113.99609375 62.35546875 -115.4375 60.1875 C-115.93121094 59.47980469 -116.42492187 58.77210938 -116.93359375 58.04296875 C-118 56 -118 56 -118 53 C-106.39655743 49.6886082 -94.76863385 46.66656387 -83 44 C-82.91363281 42.83984375 -82.82726562 41.6796875 -82.73828125 40.484375 C-81.42005514 25.01265072 -77.43800444 12.01210171 -65.8359375 0.93359375 C-46.14916917 -15.17060014 -20.2212732 -15.32012994 0 0 Z M-53.52734375 22.0625 C-58.01038243 27.96060924 -59.74376195 33.82179386 -59.453125 41.22265625 C-58.28466421 48.38451503 -54.53963273 54.38363939 -49 59 C-48.51015625 59.44085938 -48.0203125 59.88171875 -47.515625 60.3359375 C-42.59636322 64.3884722 -37.33314007 65.8086139 -31 66 C-21.99296557 64.62823901 -15.33190662 60.1875933 -9.55078125 53.265625 C-5.38282911 47.1764254 -4.34706938 40.595367 -5.44140625 33.375 C-7.41149116 24.99869494 -12.18661988 20.07503485 -19 15 C-30.95194623 7.78373058 -44.63029616 12.30309083 -53.52734375 22.0625 Z " fill="#FFFFFF" transform="translate(607,75)"/>
<path d="M0 0 C14.29723425 11.0276367 20.16297274 23.73337735 24 41 C35.22 42.32 46.44 43.64 58 45 C58 52.875 58 52.875 57 57 C45.28213196 56.38582209 33.65954766 55.3053624 22 54 C21.96261719 54.56920166 21.92523438 55.13840332 21.88671875 55.72485352 C20.707544 69.58449202 12.76802846 79.80999181 2.84765625 88.9921875 C-7.47788714 97.69327831 -20.86857504 101.60734425 -34.27734375 101.24609375 C-51.05052294 99.73001012 -63.73427983 93.21132331 -75 81 C-85.12653113 68.06358456 -87.85977947 54.09247613 -87 38 C-85.20807188 24.58519865 -78.23608289 11.56186276 -67.6171875 3.1015625 C-47.45390351 -11.51219379 -21.30920552 -14.4500192 0 0 Z M-62 22 C-68.65648433 30.79705501 -71.0614587 40.04844199 -70 51 C-68.63955315 58.43101222 -65.48117165 64.00585545 -61 70 C-59.948125 71.5778125 -59.948125 71.5778125 -58.875 73.1875 C-53.77395654 79.11395502 -43.77037284 83.33667549 -36 84 C-23.97496991 84.36931911 -13.43075909 81.07464812 -4.5234375 72.75390625 C3.18815185 63.87569184 6.66037154 53.9293874 6.34765625 42.27734375 C5.10600152 30.57230644 -1.09976905 21.9349639 -9.9140625 14.5390625 C-26.84639569 2.04591779 -48.55258144 6.94941945 -62 22 Z " fill="#FFFFFF" transform="translate(158,174)"/>
<path d="M0 0 C1.134375 0.020625 2.26875 0.04125 3.4375 0.0625 C6.60053822 6.13020616 9.1795838 12.27750766 11.60546875 18.671875 C12.19422539 20.20858353 12.19422539 20.20858353 12.7948761 21.77633667 C14.07523074 25.12034242 15.3500565 28.46642792 16.625 31.8125 C17.51385418 34.13608431 18.40318244 36.45948732 19.29296875 38.78271484 C21.1138003 43.53725188 22.93308409 48.29237674 24.75146484 53.04785156 C28.42825554 62.65699468 32.13223457 72.25560641 35.84170532 81.85217285 C36.91375841 84.62606953 37.98467073 87.40040447 39.05541992 90.17480469 C40.59068423 94.15189715 42.1334217 98.12603068 43.67877197 102.09921265 C44.35490643 103.8487806 45.01797171 105.60338647 45.67919922 107.35864258 C46.01967285 108.24962646 46.36014648 109.14061035 46.7109375 110.05859375 C46.97825684 110.77200928 47.24557617 111.4854248 47.52099609 112.22045898 C49.78647464 116.77374498 53.46357019 119.30462622 58.11328125 121.08984375 C60.54262957 121.83548531 62.96122445 122.49450118 65.4375 123.0625 C65.48004356 125.06204746 65.47830783 127.06291636 65.4375 129.0625 C64.4375 130.0625 64.4375 130.0625 62.30516052 130.18275452 C61.36584183 130.18053391 60.42652313 130.17831329 59.45874023 130.17602539 C58.39771591 130.17594986 57.33669159 130.17587433 56.24351501 130.17579651 C55.089366 130.17063522 53.93521698 130.16547394 52.74609375 130.16015625 C51.57111832 130.1587413 50.39614288 130.15732635 49.18556213 130.15586853 C45.41534936 130.15024992 41.64519496 130.13769426 37.875 130.125 C35.32617273 130.1199874 32.77734453 130.11542408 30.22851562 130.11132812 C23.96482367 130.10027444 17.70116601 130.08351821 11.4375 130.0625 C11.4375 127.7525 11.4375 125.4425 11.4375 123.0625 C12.35273437 122.85753906 13.26796875 122.65257812 14.2109375 122.44140625 C15.39945312 122.17199219 16.58796875 121.90257812 17.8125 121.625 C18.99585937 121.35816406 20.17921875 121.09132813 21.3984375 120.81640625 C24.33244581 120.20615305 24.33244581 120.20615305 26.4375 119.0625 C25.87432639 112.00747059 23.32225794 105.71877473 20.875 99.125 C19.410625 95.144375 17.94625 91.16375 16.4375 87.0625 C1.9175 87.0625 -12.6025 87.0625 -27.5625 87.0625 C-34.76442245 105.12936651 -34.76442245 105.12936651 -35.5625 117.0625 C-31.5773731 120.05134518 -29.55114332 120.7548849 -24.8125 121.75 C-23.64203125 122.00136719 -22.4715625 122.25273437 -21.265625 122.51171875 C-20.37359375 122.69347656 -19.4815625 122.87523437 -18.5625 123.0625 C-18.5625 125.3725 -18.5625 127.6825 -18.5625 130.0625 C-34.4025 130.0625 -50.2425 130.0625 -66.5625 130.0625 C-66.5625 127.7525 -66.5625 125.4425 -66.5625 123.0625 C-65.76585938 122.85496094 -64.96921875 122.64742188 -64.1484375 122.43359375 C-63.08882812 122.12550781 -62.02921875 121.81742187 -60.9375 121.5 C-59.89335938 121.20996094 -58.84921875 120.91992188 -57.7734375 120.62109375 C-49.41203153 116.56245508 -46.62309945 108.40660889 -43.375 100.1875 C-42.87374058 98.94662672 -42.37167355 97.70607945 -41.86889648 96.46582031 C-35.13617754 79.76600314 -28.71435634 62.93807766 -22.23046875 46.140625 C-18.44007178 36.32111175 -14.63173273 26.50892247 -10.7819519 16.71252441 C-10.22259444 15.28836728 -9.66425152 13.86381122 -9.10696411 12.43884277 C-8.35254619 10.51028158 -7.59480731 8.58306292 -6.8359375 6.65625 C-6.41747559 5.59083984 -5.99901367 4.52542969 -5.56787109 3.42773438 C-4.14175772 0.07266242 -4.14175772 0.07266242 0 0 Z M-6.5625 30.0625 C-8.99062389 36.27110532 -11.41089524 42.48272908 -13.82568359 48.6965332 C-14.648413 50.81084708 -15.47294986 52.92445854 -16.29931641 55.03735352 C-17.48553652 58.07125742 -18.66527294 61.10761271 -19.84375 64.14453125 C-20.40153137 65.5649749 -20.40153137 65.5649749 -20.97058105 67.01411438 C-21.31093384 67.89480087 -21.65128662 68.77548737 -22.00195312 69.68286133 C-22.3039563 70.45785477 -22.60595947 71.23284821 -22.91711426 72.03132629 C-23.71391076 74.18381676 -23.71391076 74.18381676 -23.5625 77.0625 C-11.6825 77.0625 0.1975 77.0625 12.4375 77.0625 C10.450793 71.10237899 8.41749638 65.22925081 6.15234375 59.37890625 C5.85058731 58.59732651 5.54883087 57.81574677 5.2379303 57.01048279 C4.60631268 55.3773893 3.97352471 53.744748 3.33959961 52.11254883 C2.3687889 49.60898257 1.4060131 47.10241531 0.44335938 44.59570312 C-0.17399007 43.00241457 -0.79181149 41.4093088 -1.41015625 39.81640625 C-1.69665543 39.06750626 -1.9831546 38.31860626 -2.27833557 37.54701233 C-3.8622144 33.46086826 -3.8622144 33.46086826 -6.5625 30.0625 Z " fill="#FFFFFF" transform="translate(80.5625,29.9375)"/>
<path d="M0 0 C9.99376356 -0.287074 20.55244464 1.11247625 28.80078125 7.125 C33.79602614 12.81083174 34.90420231 18.52393598 34.97436523 25.95336914 C34.98785507 27.10128433 35.00134491 28.24919952 35.01524353 29.43190002 C35.03090111 31.27738686 35.03090111 31.27738686 35.046875 33.16015625 C35.07979743 35.76888377 35.11300933 38.37760764 35.14648438 40.98632812 C35.19501689 45.09671823 35.23890489 49.20713259 35.27758789 53.31762695 C35.31549293 57.28611612 35.36876691 61.254341 35.421875 65.22265625 C35.43028915 66.45500504 35.43870331 67.68735382 35.44737244 68.95704651 C35.46401443 70.10180954 35.48065643 71.24657257 35.49780273 72.42602539 C35.51326393 73.93562584 35.51326393 73.93562584 35.52903748 75.47572327 C35.80809526 78.19630551 36.32014328 79.840834 37.80078125 82.125 C40.23465878 83.34193876 42.21916971 83.44459896 44.92578125 83.6875 C46.53453125 83.831875 48.14328125 83.97625 49.80078125 84.125 C48.48078125 88.415 47.16078125 92.705 45.80078125 97.125 C35.55193336 98.77803998 28.15431792 97.66324048 19.61328125 91.5625 C17.80078125 90.125 17.80078125 90.125 15.80078125 88.125 C15.218125 88.51171875 14.63546875 88.8984375 14.03515625 89.296875 C3.02218485 96.29253608 -10.21219396 101.28803136 -23.35546875 98.44140625 C-32.55471687 95.8989535 -38.23608231 92.90585382 -43.13671875 84.625 C-46.37673307 77.477593 -46.59653638 69.70475471 -44.3125 62.21875 C-40.15559613 53.04870292 -33.82021938 48.85230174 -24.6328125 45.28515625 C-12.37599331 41.14377366 0.82145868 38.02089145 13.80078125 38.125 C13.77789621 34.72769305 13.70047839 31.33371695 13.61328125 27.9375 C13.60748047 26.97779297 13.60167969 26.01808594 13.59570312 25.02929688 C13.44847089 20.30150636 13.36330283 17.86604082 10.4375 14.01171875 C4.41688321 9.70363296 -3.11184449 10.60082961 -10.19921875 11.125 C-14.89393081 12.34758127 -17.44449915 14.20709778 -20.51171875 17.9375 C-22.28315983 21.15457875 -22.28315983 21.15457875 -23.69921875 24.8125 C-25.21276319 28.15491065 -25.88471107 29.60979649 -29.19921875 31.125 C-34.18839362 31.01653968 -37.30473524 29.13437362 -41.19921875 26.125 C-43.56007997 22.58370816 -43.77191453 21.29749782 -43.19921875 17.125 C-36.15753473 7.25105193 -23.78501936 3.13922125 -12.19921875 1.125 C-8.13424223 0.52034223 -4.09951139 0.23300953 0 0 Z M-18.86328125 57.4609375 C-22.14803994 60.7823974 -23.13622497 64.30754989 -23.39453125 68.8203125 C-22.92535178 74.35663027 -20.21825815 78.03486482 -16.51171875 82 C-11.12973248 85.45259496 -6.05192902 86.70041518 0.30078125 85.625 C5.52658929 84.0214193 10.23001749 82.4402509 13.80078125 78.125 C14.93641772 72.8070094 14.65130112 67.63603204 14.36328125 62.25 C14.3180956 60.78397676 14.27703803 59.31782011 14.24023438 57.8515625 C14.14145525 54.2732532 13.98641604 50.69997695 13.80078125 47.125 C3.08859828 47.125 -10.52810089 50.76931383 -18.86328125 57.4609375 Z " fill="#FFFFFF" transform="translate(697.19921875,302.875)"/>
<path d="M0 0 C4.30764815 1.56641751 8.06171464 3.68336156 12 6 C11.39864986 10.32561523 9.83268155 13.46732215 7.69140625 17.25390625 C7.20123268 18.12800392 7.20123268 18.12800392 6.70115662 19.01976013 C5.66131915 20.87102151 4.61223942 22.71683875 3.5625 24.5625 C2.51841325 26.41284436 1.47623745 28.26425273 0.43455505 30.11595154 C-0.51112447 31.79464275 -1.46137546 33.47075622 -2.41186523 35.14672852 C-2.93594971 36.08830811 -3.46003418 37.0298877 -4 38 C-4.63494385 39.09151367 -4.63494385 39.09151367 -5.28271484 40.20507812 C-6.30265804 42.16929045 -6.30265804 42.16929045 -4.91796875 44.83984375 C-4.34691406 45.86207031 -3.77585937 46.88429688 -3.1875 47.9375 C1.57967516 56.56641431 2.44699661 65.47046558 -0.125 75.0625 C-3.6463401 85.3493778 -9.77294933 94.33871883 -19.66015625 99.34765625 C-30.03973951 103.6126102 -40.86102738 104.79822385 -51.66015625 101.03515625 C-62.12599214 96.40502852 -69.70931127 88.58657369 -74 78 C-77.63087858 68.5597157 -76.91129665 58.22475625 -73 49 C-67.82280474 38.27465779 -60.28686106 31.35092925 -49.10546875 27.31640625 C-39.69779002 24.53817119 -31.09145438 25.8722804 -22 29 C-20.66857601 29.34087983 -19.33547717 29.67536232 -18 30 C-17.34197388 28.90328979 -17.34197388 28.90328979 -16.6706543 27.78442383 C-11.11376953 18.52294922 -5.55688477 9.26147461 0 0 Z M-54.3359375 51.1171875 C-58.43327402 55.75314103 -59.59562035 60.71218444 -59.33984375 66.73828125 C-58.29706385 73.6781613 -54.41449451 78.27200996 -49.06640625 82.5859375 C-43.84440123 86.15940786 -38.59539779 86.45169469 -32.49609375 85.671875 C-26.35880313 84.01989693 -21.40309077 79.23552426 -18 74 C-15.35256932 67.91090943 -15.14804264 62.61353685 -17.5625 56.4375 C-20.54666836 50.29116025 -24.88950232 46.65827281 -31.1875 44.125 C-40.24639212 41.45188429 -47.73406912 44.83094629 -54.3359375 51.1171875 Z " fill="#FFFFFF" transform="translate(246,295)"/>
<path d="M0 0 C-0.0721875 1.24007813 -0.144375 2.48015625 -0.21875 3.7578125 C-0.82616471 15.00687361 -1.10810344 26.23422108 -1.125 37.5 C-1.12951172 38.72605957 -1.13402344 39.95211914 -1.13867188 41.21533203 C-1.88198609 54.97456824 -1.88198609 54.97456824 1 68 C3.33247815 68.62852934 5.69291467 69.15535246 8.0625 69.625 C9.35285156 69.88539063 10.64320313 70.14578125 11.97265625 70.4140625 C12.97167969 70.60742188 13.97070312 70.80078125 15 71 C15 73.97 15 76.94 15 80 C-3.15 80 -21.3 80 -40 80 C-40 77.03 -40 74.06 -40 71 C-39.09636719 70.87882812 -38.19273437 70.75765625 -37.26171875 70.6328125 C-36.08222656 70.46523438 -34.90273438 70.29765625 -33.6875 70.125 C-32.51574219 69.96257812 -31.34398437 69.80015625 -30.13671875 69.6328125 C-26.85469105 69.17699379 -26.85469105 69.17699379 -24 67 C-22.98948768 63.56828051 -22.85534272 60.22083705 -22.79467773 56.65893555 C-22.77473251 55.6182341 -22.75478729 54.57753265 -22.73423767 53.5052948 C-22.71752518 52.3936647 -22.70081268 51.28203461 -22.68359375 50.13671875 C-22.66281265 48.98959915 -22.64203156 47.84247955 -22.62062073 46.66059875 C-22.55533381 43.00295902 -22.49633714 39.34524862 -22.4375 35.6875 C-22.39429496 33.20507087 -22.35068003 30.72264884 -22.30664062 28.24023438 C-22.19967374 22.16022833 -22.09834748 16.08015133 -22 10 C-30.91 10.99 -30.91 10.99 -40 12 C-40 8.7 -40 5.4 -40 2 C-13.08510638 -0.38297872 -13.08510638 -0.38297872 0 0 Z " fill="#FFFFFF" transform="translate(796,319)"/>
<path d="M0 0 C2.60404613 0.87831387 3.77398887 0.76150433 6.3046875 -0.22265625 C6.6346875 -0.55265625 6.9646875 -0.88265625 7.3046875 -1.22265625 C8.97085865 -1.26329457 10.63856845 -1.26537725 12.3046875 -1.22265625 C13.10161588 8.81010286 13.43315825 18.71380157 13.3046875 28.77734375 C11.6546875 29.10734375 10.0046875 29.43734375 8.3046875 29.77734375 C7.66660156 28.26720703 7.66660156 28.26720703 7.015625 26.7265625 C5.40371044 22.97267238 3.70378028 19.27048421 1.9296875 15.58984375 C1.36507812 14.40003906 0.80046875 13.21023438 0.21875 11.984375 C-2.21369151 7.90879443 -4.62909857 5.59493502 -9.0546875 3.84375 C-16.27427227 2.32197478 -21.33315662 3.1003668 -27.63671875 6.96875 C-34.55993121 12.21723288 -38.04654171 20.40422992 -39.41015625 28.82421875 C-40.82056937 43.43068889 -40.22283015 56.86794669 -30.6953125 68.77734375 C-30.6953125 69.43734375 -30.6953125 70.09734375 -30.6953125 70.77734375 C-19.21872083 76.64727844 -19.21872083 76.64727844 -6.6328125 76.26953125 C1.53253838 73.57867698 5.55881016 69.01703813 9.421875 61.5703125 C9.71320313 60.97863281 10.00453125 60.38695312 10.3046875 59.77734375 C11.9546875 60.10734375 13.6046875 60.43734375 15.3046875 60.77734375 C14.5125946 67.50524392 11.78666046 71.78476627 7.3046875 76.77734375 C-2.39781159 84.35305504 -12.64457147 85.77019574 -24.6953125 84.77734375 C-35.55294223 82.39758929 -43.08723533 76.67670924 -49.15625 67.50390625 C-55.58047154 56.12292494 -57.56319415 43.01523668 -54.9765625 30.22265625 C-51.52205153 18.38259851 -45.90730822 7.1508998 -34.875 0.84375 C-23.61168929 -4.66679449 -11.47710161 -5.18039389 0 0 Z " fill="#FFFFFF" transform="translate(542.6953125,316.22265625)"/>
<path d="M0 0 C10.52796113 1.50399445 19.97972865 5.57791033 26.765625 14.0078125 C30.93101008 20.73042767 30.88513749 27.85010917 29.5703125 35.5 C27.62614335 42.41260141 23.59857931 47.60292981 17.63671875 51.57421875 C12.08771319 54.58604292 7.2822905 55.6960182 1 56 C0.375 53.125 0.375 53.125 0 50 C2.10854985 47.89145015 3.10873176 47.53825797 5.875 46.6875 C9.85559879 45.22818792 11.88249851 43.81150269 14 40 C15.23935122 35.83440283 15.30422003 32.87885787 13.875 28.75 C10.19654167 23.35492779 5.73045443 21.27454539 0 18 C0 12.06 0 6.12 0 0 Z " fill="#FFFFFF" transform="translate(672,106)"/>
<path d="M0 0 C11.17291834 2.87303614 20.26639822 7.32167441 27 17 C30.05439675 22.97599363 29.90915623 30.25449409 28.34765625 36.6875 C25.34083702 45.15305113 20.50345346 50.00713465 12.5 53.9375 C8.06474848 55.80948202 4.76894871 56.52988319 0 56 C0 54.02 0 52.04 0 50 C1.15628906 49.41992188 1.15628906 49.41992188 2.3359375 48.828125 C3.84027344 48.04695313 3.84027344 48.04695313 5.375 47.25 C6.37273437 46.73953125 7.37046875 46.2290625 8.3984375 45.703125 C11.15569962 43.89807052 12.02682939 43.09490887 13 40 C13.62676418 35.1097818 13.79047687 30.58095374 11.5625 26.125 C7.96449221 23.14128622 4.15717336 21.13972158 0 19 C0 12.73 0 6.46 0 0 Z " fill="#FFFFFF" transform="translate(185,106)"/>
<path d="M0 0 C0 2.31 0 4.62 0 7 C-0.60328125 7.23074219 -1.2065625 7.46148437 -1.828125 7.69921875 C-8.57177487 10.42177265 -8.57177487 10.42177265 -13 16 C-13.66969524 19.83127976 -13.32485178 23.00224095 -12.125 26.6875 C-8.72693455 30.38539475 -4.55009305 31.93177589 0 34 C0 40.27 0 46.54 0 53 C-10.17156185 51.54691974 -18.09581984 48.05508482 -24.6953125 40.02734375 C-28.93091049 33.44568101 -28.70558763 26.60657882 -28 19 C-27.08525204 15.96341398 -25.81160461 13.58800658 -24 11 C-23.1646875 9.6696875 -23.1646875 9.6696875 -22.3125 8.3125 C-15.89663021 1.89663021 -8.84988823 -0.17019016 0 0 Z " fill="#FFFFFF" transform="translate(178,69)"/>
<path d="M0 0 C0 1.98 0 3.96 0 6 C-1.45537568 6.83848804 -2.91440373 7.67063934 -4.375 8.5 C-5.18710937 8.9640625 -5.99921875 9.428125 -6.8359375 9.90625 C-9 11 -9 11 -11 11 C-13.10482162 15.95252147 -13.45217885 19.86967474 -12 25 C-9.38220686 29.36298857 -6.50405601 30.84588626 -2 33 C0.08229108 36.12343663 0.23770457 36.53852922 -0.0234375 40.01171875 C-0.075 40.76904297 -0.1265625 41.52636719 -0.1796875 42.30664062 C-0.24414062 43.09232422 -0.30859375 43.87800781 -0.375 44.6875 C-0.43171875 45.48478516 -0.4884375 46.28207031 -0.546875 47.10351562 C-0.68816028 49.06973581 -0.84279906 51.03498824 -1 53 C-11.25925714 50.55833964 -20.05920584 46.01832031 -26 37 C-29.15025803 30.52567659 -29.21870406 22.98255076 -27.125 16.140625 C-23.82616439 8.97867926 -19.40270629 4.73120145 -12.4375 1.1875 C-4.58035714 -1.52678571 -4.58035714 -1.52678571 0 0 Z " fill="#FFFFFF" transform="translate(666,69)"/>
<path d="M0 0 C3.3918811 2.63812975 5.06723201 4.46074471 5.68359375 8.80859375 C5.68488281 9.92363281 5.68617188 11.03867187 5.6875 12.1875 C5.71650391 13.85619141 5.71650391 13.85619141 5.74609375 15.55859375 C5.15155199 19.38332303 3.91944799 21.00160346 1.25 23.75 C-2.47134608 26.02415594 -5.63375601 25.95703828 -9.81640625 25.30078125 C-12.76284741 24.46149195 -14.61108171 22.88891829 -16.75 20.75 C-18.96775216 16.31449569 -18.28167923 10.56432619 -17.75 5.75 C-16.40348331 2.8802038 -15.24409557 1.83808001 -12.75 -0.25 C-8.23047673 -1.75650776 -4.39040622 -1.99563919 0 0 Z " fill="#FFFFFF" transform="translate(790.75,284.25)"/>
<path d="M0 0 C2.31 0 4.62 0 7 0 C7.45890625 0.95261719 7.9178125 1.90523437 8.390625 2.88671875 C9.01008974 4.15380572 9.62989981 5.4207239 10.25 6.6875 C10.55035156 7.31333984 10.85070312 7.93917969 11.16015625 8.58398438 C15.56027416 17.52464948 21.53687388 22.7470504 31 26 C31 28.64 31 31.28 31 34 C23.35063869 33.0420426 17.48661131 31.19627694 11 27 C10.61521484 27.96486328 10.61521484 27.96486328 10.22265625 28.94921875 C9.81917969 29.62597656 9.41570312 30.30273438 9 31 C5.4375 31.8125 5.4375 31.8125 2 32 C0.08780415 30.08780415 0.75564702 26.66354496 0.68359375 24.12109375 C0.66281265 23.4344313 0.64203156 22.74776886 0.62062073 22.04029846 C0.55505857 19.83947065 0.49620985 17.63852025 0.4375 15.4375 C0.39432108 13.94855486 0.350707 12.45962227 0.30664062 10.97070312 C0.1993707 7.31393447 0.09812228 3.65702682 0 0 Z " fill="#FFFFFF" transform="translate(147,129)"/>
<path d="M0 0 C1.4540625 0.0309375 1.4540625 0.0309375 2.9375 0.0625 C3.4221875 1.06410156 3.906875 2.06570312 4.40625 3.09765625 C9.96627082 14.2555307 15.33170556 20.88134177 26.9375 26.0625 C26.6075 28.3725 26.2775 30.6825 25.9375 33.0625 C18.78687514 32.65774765 13.31045696 30.23726348 6.9375 27.0625 C6.586875 27.7225 6.23625 28.3825 5.875 29.0625 C3.9375 31.0625 3.9375 31.0625 0.25 31.3125 C-0.843125 31.23 -1.93625 31.1475 -3.0625 31.0625 C-3.23172465 27.37511278 -3.39741801 23.68757482 -3.5625 20 C-3.61019531 18.96166016 -3.65789063 17.92332031 -3.70703125 16.85351562 C-4.21081979 5.51827357 -4.21081979 5.51827357 -4.0625 1.0625 C-3.0625 0.0625 -3.0625 0.0625 0 0 Z " fill="#FFFFFF" transform="translate(639.0625,128.9375)"/>
<path d="M0 0 C2.31 0 4.62 0 7 0 C8.0839844 6.14257828 8.14942248 12.14726675 8.125 18.375 C8.13080078 19.88900391 8.13080078 19.88900391 8.13671875 21.43359375 C8.13542969 22.39136719 8.13414062 23.34914063 8.1328125 24.3359375 C8.13168457 25.20782715 8.13055664 26.0797168 8.12939453 26.97802734 C8 29 8 29 7 30 C5.33382885 30.04063832 3.66611905 30.042721 2 30 C1.5875 29.05898437 1.175 28.11796875 0.75 27.1484375 C-3.54111468 17.75352562 -7.56143314 12.60417896 -17 8 C-17 5.69 -17 3.38 -17 1 C-11.39538469 1.42089996 -6.27913453 1.91613111 -1 4 C-0.67 2.68 -0.34 1.36 0 0 Z " fill="#FFFFFF" transform="translate(689,68)"/>
<path d="M0 0 C3.02508145 1.73602105 5.41790069 3.83580137 7 7 C7.50872093 13.10465114 7.06705978 16.11952826 3 21 C-0.69609672 23.46406448 -3.71027391 23.67864807 -8 23 C-11.02899973 21.22210886 -12.5538292 19.73009767 -14.375 16.75 C-15.2365756 12.95906738 -15.06523413 9.73965174 -14 6 C-10.28823079 0.37247893 -6.72035601 -1.14707375 0 0 Z " fill="#FFFFFF" transform="translate(632,379)"/>
<path d="M0 0 C2.20004472 0.41780398 4.38631928 0.9093008 6.5625 1.4375 C7.76003906 1.72496094 8.95757812 2.01242188 10.19140625 2.30859375 C11.11824219 2.53675781 12.04507813 2.76492187 13 3 C13.33 2.01 13.66 1.02 14 0 C16.64 0 19.28 0 22 0 C23.1922117 9.66543055 23.09622024 19.28175551 23 29 C20.69 29 18.38 29 16 29 C15.82984375 28.40832031 15.6596875 27.81664063 15.484375 27.20703125 C13.98383027 22.31429763 12.42775087 18.90054409 9 15 C9 14.34 9 13.68 9 13 C8.46375 12.731875 7.9275 12.46375 7.375 12.1875 C4.58333333 10.79166667 1.79166667 9.39583333 -1 8 C-1.04241723 5.66705225 -1.04092937 3.33297433 -1 1 C-0.67 0.67 -0.34 0.34 0 0 Z " fill="#FFFFFF" transform="translate(186,69)"/>
<path d="M0 0 C2.65731145 3.27053717 2.80661161 6.87378423 2.625 11 C1.3329598 14.30188052 0.04960469 15.65572593 -2.6875 17.875 C-6.16919705 19.33245458 -7.80213275 19.19095575 -11.375 18 C-14.33677577 15.93963425 -16.07113631 14.45854572 -16.82421875 10.84375 C-17.02069591 6.77870532 -16.69677492 4.53259297 -14.5625 1 C-10.08919081 -3.08988269 -5.32760889 -2.24320374 0 0 Z " fill="#FFFFFF" transform="translate(394.375,43)"/>
</svg>
